<svg width="32" height="36" viewBox="0 0 32 36" fill="none" xmlns="http://www.w3.org/2000/svg">
<path fill-rule="evenodd" clip-rule="evenodd" d="M31.3302 18.6595C31.7591 19.0814 32 19.6536 32 20.2503C32 20.8469 31.7591 21.4191 31.3302 21.841L17.6036 35.3412C17.1746 35.763 16.5928 36 15.9862 36C15.3796 36 14.7978 35.763 14.3687 35.3412L0.6422 21.841C0.225466 21.4167 -0.00512665 20.8483 8.57952e-05 20.2584C0.00529824 19.6684 0.245899 19.1041 0.670068 18.6869C1.09424 18.2697 1.66803 18.0331 2.26788 18.028C2.86772 18.0228 3.44561 18.2496 3.87709 18.6595L13.6984 28.3189L13.6984 2.25003C13.6984 1.65328 13.9395 1.08098 14.3685 0.659018C14.7975 0.237056 15.3794 -5.2112e-07 15.9862 -5.47642e-07C16.5929 -5.74164e-07 17.1748 0.237056 17.6039 0.659018C18.0329 1.08098 18.2739 1.65328 18.2739 2.25003L18.2739 28.3189L28.0953 18.6595C28.5243 18.2377 29.1061 18.0007 29.7127 18.0007C30.3194 18.0007 30.9012 18.2377 31.3302 18.6595Z" fill="#1C1C1C"/>
</svg>
