<svg width="36" height="32" viewBox="0 0 36 32" fill="none" xmlns="http://www.w3.org/2000/svg">
<path fill-rule="evenodd" clip-rule="evenodd" d="M18.6595 0.669824C19.0814 0.240936 19.6536 1.48831e-06 20.2503 1.43615e-06C20.8469 1.38399e-06 21.4191 0.240936 21.841 0.669824L35.3412 14.3964C35.763 14.8254 36 15.4072 36 16.0138C36 16.6204 35.763 17.2022 35.3412 17.6313L21.841 31.3578C21.4167 31.7745 20.8483 32.0051 20.2584 31.9999C19.6684 31.9947 19.1041 31.7541 18.6869 31.3299C18.2697 30.9058 18.0331 30.332 18.028 29.7321C18.0228 29.1323 18.2496 28.5544 18.6595 28.1229L28.3189 18.3016L2.25003 18.3016C1.65328 18.3016 1.08098 18.0605 0.659018 17.6315C0.237055 17.2025 -1.19338e-06 16.6206 -1.24642e-06 16.0138C-1.29946e-06 15.4071 0.237055 14.8252 0.659018 14.3961C1.08098 13.9671 1.65328 13.7261 2.25003 13.7261L28.3189 13.7261L18.6595 3.90471C18.2377 3.4757 18.0007 2.8939 18.0007 2.28727C18.0007 1.68064 18.2377 1.09884 18.6595 0.669824Z" fill="#1C1C1C"/>
</svg>
