<svg width="44" height="44" viewBox="0 0 44 44" fill="none" xmlns="http://www.w3.org/2000/svg">
<circle cx="21.8564" cy="21.8564" r="16" transform="rotate(30 21.8564 21.8564)" fill="#F4F4F4"/>
<path fill-rule="evenodd" clip-rule="evenodd" d="M20.0114 15.7666C20.144 15.537 20.3624 15.3694 20.6185 15.3008C20.8746 15.2322 21.1475 15.2681 21.3772 15.4006L28.7257 19.6433C28.9553 19.7759 29.1228 19.9943 29.1914 20.2504C29.2601 20.5065 29.2242 20.7794 29.0916 21.0091L24.849 28.3575C24.714 28.5823 24.496 28.745 24.2422 28.8107C23.9883 28.8764 23.7189 28.8397 23.4918 28.7086C23.2647 28.5775 23.0982 28.3624 23.0281 28.1098C22.9581 27.8571 22.9901 27.587 23.1172 27.3577L26.1528 22.0999L14.9616 25.0985C14.7054 25.1672 14.4324 25.1313 14.2028 24.9986C13.9731 24.866 13.8055 24.6476 13.7368 24.3914C13.6682 24.1353 13.7041 23.8623 13.8367 23.6326C13.9693 23.4029 14.1878 23.2353 14.4439 23.1667L25.6352 20.168L20.3773 17.1324C20.1477 16.9998 19.9802 16.7814 19.9115 16.5253C19.8429 16.2691 19.8788 15.9962 20.0114 15.7666Z" fill="black"/>
</svg>
