<svg width="32" height="32" viewBox="0 0 32 32" fill="none" xmlns="http://www.w3.org/2000/svg">
<path fill-rule="evenodd" clip-rule="evenodd" d="M6.4002 7.9998C5.5515 7.9998 4.73757 8.33695 4.13745 8.93706C3.53734 9.53718 3.2002 10.3511 3.2002 11.1998V23.9998C3.2002 24.8485 3.53734 25.6624 4.13745 26.2625C4.73757 26.8627 5.5515 27.1998 6.4002 27.1998H25.6002C26.4489 27.1998 27.2628 26.8627 27.8629 26.2625C28.4631 25.6624 28.8002 24.8485 28.8002 23.9998V11.1998C28.8002 10.3511 28.4631 9.53718 27.8629 8.93706C27.2628 8.33695 26.4489 7.9998 25.6002 7.9998H23.0626C22.6383 7.99971 22.2314 7.83108 21.9314 7.531L20.1378 5.7374C19.5378 5.13725 18.724 4.79999 17.8754 4.7998H14.125C13.2764 4.79999 12.4626 5.13725 11.8626 5.7374L10.069 7.531C9.76901 7.83108 9.36211 7.99971 8.9378 7.9998H6.4002ZM16.0002 22.3998C16.6305 22.3998 17.2547 22.2756 17.8371 22.0344C18.4194 21.7932 18.9486 21.4396 19.3943 20.9939C19.84 20.5482 20.1936 20.019 20.4348 19.4367C20.676 18.8543 20.8002 18.2301 20.8002 17.5998C20.8002 16.9695 20.676 16.3453 20.4348 15.7629C20.1936 15.1806 19.84 14.6514 19.3943 14.2057C18.9486 13.76 18.4194 13.4064 17.8371 13.1652C17.2547 12.924 16.6305 12.7998 16.0002 12.7998C14.7272 12.7998 13.5063 13.3055 12.6061 14.2057C11.7059 15.1059 11.2002 16.3268 11.2002 17.5998C11.2002 18.8728 11.7059 20.0937 12.6061 20.9939C13.5063 21.8941 14.7272 22.3998 16.0002 22.3998Z" fill="#1C1C1C"/>
</svg>
