<svg width="32" height="32" viewBox="0 0 32 32" fill="none" xmlns="http://www.w3.org/2000/svg">
<path fill-rule="evenodd" clip-rule="evenodd" d="M9.6002 3.2002C9.17585 3.2002 8.76888 3.36877 8.46882 3.66882C8.16877 3.96888 8.0002 4.37585 8.0002 4.8002V6.4002H6.4002C5.5515 6.4002 4.73757 6.73734 4.13745 7.33745C3.53734 7.93757 3.2002 8.7515 3.2002 9.6002V25.6002C3.2002 26.4489 3.53734 27.2628 4.13745 27.8629C4.73757 28.4631 5.5515 28.8002 6.4002 28.8002H25.6002C26.4489 28.8002 27.2628 28.4631 27.8629 27.8629C28.4631 27.2628 28.8002 26.4489 28.8002 25.6002V9.6002C28.8002 8.7515 28.4631 7.93757 27.8629 7.33745C27.2628 6.73734 26.4489 6.4002 25.6002 6.4002H24.0002V4.8002C24.0002 4.37585 23.8316 3.96888 23.5316 3.66882C23.2315 3.36877 22.8245 3.2002 22.4002 3.2002C21.9758 3.2002 21.5689 3.36877 21.2688 3.66882C20.9688 3.96888 20.8002 4.37585 20.8002 4.8002V6.4002H11.2002V4.8002C11.2002 4.37585 11.0316 3.96888 10.7316 3.66882C10.4315 3.36877 10.0245 3.2002 9.6002 3.2002ZM9.6002 11.2002C9.17585 11.2002 8.76888 11.3688 8.46882 11.6688C8.16877 11.9689 8.0002 12.3758 8.0002 12.8002C8.0002 13.2245 8.16877 13.6315 8.46882 13.9316C8.76888 14.2316 9.17585 14.4002 9.6002 14.4002H22.4002C22.8245 14.4002 23.2315 14.2316 23.5316 13.9316C23.8316 13.6315 24.0002 13.2245 24.0002 12.8002C24.0002 12.3758 23.8316 11.9689 23.5316 11.6688C23.2315 11.3688 22.8245 11.2002 22.4002 11.2002H9.6002Z" fill="#1C1C1C"/>
</svg>
