<svg width="18" height="18" viewBox="0 0 18 18" fill="none" xmlns="http://www.w3.org/2000/svg">
<path d="M2.00293 5.3985L9.0003 8.89675L15.9977 5.3985C15.9718 4.95264 15.7764 4.53355 15.4515 4.22707C15.1267 3.92059 14.6969 3.74992 14.2503 3.75H3.7503C3.30369 3.74992 2.87395 3.92059 2.54909 4.22707C2.22422 4.53355 2.02883 4.95264 2.00293 5.3985Z" fill="#F4F4F4"/>
<path d="M16 7.35352L9 10.8535L2 7.35352V12.5003C2 12.9644 2.18437 13.4095 2.51256 13.7377C2.84075 14.0659 3.28587 14.2503 3.75 14.2503H14.25C14.7141 14.2503 15.1592 14.0659 15.4874 13.7377C15.8156 13.4095 16 12.9644 16 12.5003V7.35352Z" fill="#F4F4F4"/>
</svg>
