<svg width="16" height="16" viewBox="0 0 16 16" fill="none" xmlns="http://www.w3.org/2000/svg">
<path d="M1.59961 2.39961C1.59961 2.18744 1.68389 1.98395 1.83392 1.83392C1.98395 1.68389 2.18744 1.59961 2.39961 1.59961H4.12201C4.31137 1.5997 4.49457 1.66695 4.639 1.78942C4.78344 1.91188 4.87975 2.08161 4.91081 2.26841L5.50281 5.81641C5.5311 5.98538 5.50439 6.15898 5.42662 6.31163C5.34885 6.46429 5.22413 6.58795 5.07081 6.66441L3.83241 7.28281C4.2765 8.38333 4.93788 9.38304 5.77703 10.2222C6.61618 11.0613 7.61589 11.7227 8.71641 12.1668L9.33561 10.9284C9.41203 10.7752 9.53556 10.6506 9.68805 10.5729C9.84054 10.4951 10.014 10.4683 10.1828 10.4964L13.7308 11.0884C13.9176 11.1195 14.0873 11.2158 14.2098 11.3602C14.3323 11.5047 14.3995 11.6878 14.3996 11.8772V13.5996C14.3996 13.8118 14.3153 14.0153 14.1653 14.1653C14.0153 14.3153 13.8118 14.3996 13.5996 14.3996H11.9996C6.25561 14.3996 1.59961 9.74361 1.59961 3.99961V2.39961Z" fill="#F4F4F4"/>
</svg>
