<svg width="32" height="32" viewBox="0 0 32 32" fill="none" xmlns="http://www.w3.org/2000/svg">
<path fill-rule="evenodd" clip-rule="evenodd" d="M8.07964 6.47979C10.1802 4.37928 13.0291 3.19922 15.9996 3.19922C18.9702 3.19922 21.8191 4.37928 23.9196 6.47979C26.0201 8.5803 27.2002 11.4292 27.2002 14.3998C27.2002 17.3704 26.0201 20.2193 23.9196 22.3198L15.9996 30.2398L8.07964 22.3198C7.0395 21.2798 6.21441 20.045 5.65149 18.6861C5.08856 17.3272 4.79883 15.8707 4.79883 14.3998C4.79883 12.9289 5.08856 11.4724 5.65149 10.1135C6.21441 8.75455 7.0395 7.51982 8.07964 6.47979ZM15.9996 17.5998C16.8483 17.5998 17.6623 17.2626 18.2624 16.6625C18.8625 16.0624 19.1996 15.2485 19.1996 14.3998C19.1996 13.5511 18.8625 12.7372 18.2624 12.137C17.6623 11.5369 16.8483 11.1998 15.9996 11.1998C15.1509 11.1998 14.337 11.5369 13.7369 12.137C13.1368 12.7372 12.7996 13.5511 12.7996 14.3998C12.7996 15.2485 13.1368 16.0624 13.7369 16.6625C14.337 17.2626 15.1509 17.5998 15.9996 17.5998Z" fill="#1C1C1C"/>
</svg>
