<svg width="12" height="12" viewBox="0 0 12 12" fill="none" xmlns="http://www.w3.org/2000/svg">
<path fill-rule="evenodd" clip-rule="evenodd" d="M6.176 1.97548C6.28851 1.86299 6.4411 1.7998 6.60019 1.7998C6.75929 1.7998 6.91188 1.86299 7.02439 1.97548L10.6244 5.57548C10.7369 5.68799 10.8001 5.84058 10.8001 5.99968C10.8001 6.15878 10.7369 6.31136 10.6244 6.42388L7.02439 10.0239C6.91123 10.1332 6.75967 10.1936 6.60235 10.1923C6.44504 10.1909 6.29455 10.1278 6.1833 10.0166C6.07206 9.90532 6.00896 9.75484 6.00759 9.59752C6.00622 9.4402 6.0667 9.28864 6.176 9.17548L8.7518 6.59968H1.8002C1.64107 6.59968 1.48845 6.53646 1.37593 6.42394C1.26341 6.31142 1.2002 6.15881 1.2002 5.99968C1.2002 5.84055 1.26341 5.68793 1.37593 5.57541C1.48845 5.46289 1.64107 5.39968 1.8002 5.39968H8.7518L6.176 2.82388C6.06351 2.71136 6.00032 2.55878 6.00032 2.39968C6.00032 2.24058 6.06351 2.08799 6.176 1.97548Z" fill="#F4F4F4"/>
</svg>
