<svg width="20" height="20" viewBox="0 0 20 20" fill="none" xmlns="http://www.w3.org/2000/svg">
<g clip-path="url(#clip0_20_83)">
<path fill-rule="evenodd" clip-rule="evenodd" d="M4.86714 0.321429C6.40143 0.15 8.00286 0 9.64286 0C11.2829 0 12.8843 0.15 14.4186 0.321429C15.5847 0.455143 16.671 0.980531 17.4998 1.81169C18.3287 2.64286 18.851 3.73062 18.9814 4.89714C19.1457 6.42429 19.2857 8.01429 19.2857 9.64286C19.2857 11.2714 19.1457 12.8614 18.9814 14.3886C18.851 15.5551 18.3287 16.6429 17.4998 17.474C16.671 18.3052 15.5847 18.8306 14.4186 18.9643C12.8843 19.1357 11.2829 19.2857 9.64286 19.2857C8.00286 19.2857 6.40143 19.1357 4.86714 18.9643C3.70099 18.8306 2.6147 18.3052 1.78588 17.474C0.957048 16.6429 0.434719 15.5551 0.304286 14.3886C0.14 12.8614 0 11.2714 0 9.64286C0 8.01429 0.14 6.42429 0.304286 4.89714C0.434719 3.73062 0.957048 2.64286 1.78588 1.81169C2.6147 0.980531 3.70099 0.455143 4.86714 0.321429ZM11.5457 3.76C11.4964 3.54625 11.3701 3.35813 11.191 3.23154C11.0118 3.10495 10.7923 3.04874 10.5744 3.07365C10.3564 3.09855 10.1552 3.20282 10.0093 3.36656C9.86328 3.5303 9.78269 3.74206 9.78286 3.96143V12.2143C9.78286 12.6528 9.65282 13.0815 9.4092 13.4461C9.16558 13.8107 8.81931 14.0948 8.41418 14.2627C8.00905 14.4305 7.56325 14.4744 7.13317 14.3888C6.70309 14.3033 6.30803 14.0921 5.99796 13.782C5.68788 13.472 5.47672 13.0769 5.39117 12.6468C5.30562 12.2167 5.34953 11.771 5.51734 11.3658C5.68515 10.9607 5.96933 10.6144 6.33394 10.3708C6.69854 10.1272 7.1272 9.99714 7.56571 9.99714C7.80251 9.99714 8.02962 9.90307 8.19706 9.73563C8.3645 9.56819 8.45857 9.34109 8.45857 9.10429C8.45857 8.86749 8.3645 8.64038 8.19706 8.47294C8.02962 8.3055 7.80251 8.21143 7.56571 8.21143C6.77402 8.21143 6.00011 8.44619 5.34185 8.88603C4.68358 9.32587 4.17052 9.95103 3.86756 10.6825C3.56459 11.4139 3.48532 12.2187 3.63977 12.9952C3.79422 13.7717 4.17546 14.4849 4.73527 15.0447C5.29508 15.6045 6.00832 15.9858 6.78479 16.1402C7.56127 16.2947 8.36611 16.2154 9.09754 15.9124C9.82897 15.6095 10.4541 15.0964 10.894 14.4382C11.3338 13.7799 11.5686 13.006 11.5686 12.2143V7.22857C12.4257 7.95714 13.5314 8.35714 14.8286 8.35714C15.0654 8.35714 15.2925 8.26307 15.4599 8.09563C15.6274 7.92819 15.7214 7.70109 15.7214 7.46428C15.7214 7.22748 15.6274 7.00038 15.4599 6.83294C15.2925 6.6655 15.0654 6.57143 14.8286 6.57143C13.8857 6.57143 13.1857 6.28 12.67 5.82143C12.1443 5.35286 11.7543 4.65571 11.5457 3.76Z" fill="#F4F4F4"/>
</g>
<defs>
<clipPath id="clip0_20_83">
<rect width="20" height="20" fill="white"/>
</clipPath>
</defs>
</svg>
